<?xml version="1.0" encoding="UTF-8" standalone="no"?>
<!DOCTYPE svg PUBLIC "-//W3C//DTD SVG 1.1//EN"
 "http://www.w3.org/Graphics/SVG/1.1/DTD/svg11.dtd">
<!-- Generated by graphviz version 2.38.0 (20140413.2041)
 -->
<!-- Title: %3 Pages: 1 -->
<svg width="209pt" height="586pt"
 viewBox="0.00 0.00 209.00 586.00" xmlns="http://www.w3.org/2000/svg" xmlns:xlink="http://www.w3.org/1999/xlink">
<g id="graph0" class="graph" transform="scale(1 1) rotate(0) translate(4 582)">
<title>%3</title>
<polygon fill="white" stroke="none" points="-4,4 -4,-582 205,-582 205,4 -4,4"/>
<!-- (below main) -->
<g id="node1" class="node"><title>(below main)</title>
<polygon fill="#ff0000" stroke="#ff0000" points="131,-269 60,-269 60,-206 131,-206 131,-269"/>
<text text-anchor="middle" x="95.5" y="-257" font-family="Arial" font-size="10.00" fill="#ffffff">libc&#45;2.23.so</text>
<text text-anchor="middle" x="95.5" y="-246" font-family="Arial" font-size="10.00" fill="#ffffff">(below main)</text>
<text text-anchor="middle" x="95.5" y="-235" font-family="Arial" font-size="10.00" fill="#ffffff">100.00%</text>
<text text-anchor="middle" x="95.5" y="-224" font-family="Arial" font-size="10.00" fill="#ffffff">(0.00%)</text>
<text text-anchor="middle" x="95.5" y="-213" font-family="Arial" font-size="10.00" fill="#ffffff">1×</text>
</g>
<!-- main -->
<g id="node2" class="node"><title>main</title>
<polygon fill="#ff0000" stroke="#ff0000" points="127.5,-166 63.5,-166 63.5,-103 127.5,-103 127.5,-166"/>
<text text-anchor="middle" x="95.5" y="-154" font-family="Arial" font-size="10.00" fill="#ffffff">poisson.ex</text>
<text text-anchor="middle" x="95.5" y="-143" font-family="Arial" font-size="10.00" fill="#ffffff">main</text>
<text text-anchor="middle" x="95.5" y="-132" font-family="Arial" font-size="10.00" fill="#ffffff">100.00%</text>
<text text-anchor="middle" x="95.5" y="-121" font-family="Arial" font-size="10.00" fill="#ffffff">(0.00%)</text>
<text text-anchor="middle" x="95.5" y="-110" font-family="Arial" font-size="10.00" fill="#ffffff">1×</text>
</g>
<!-- (below main)&#45;&gt;main -->
<g id="edge1" class="edge"><title>(below main)&#45;&gt;main</title>
<path fill="none" stroke="#ff0000" stroke-width="4" d="M95.5,-205.923C95.5,-196.615 95.5,-186.232 95.5,-176.359"/>
<polygon fill="#ff0000" stroke="#ff0000" stroke-width="4" points="99.0001,-176.322 95.5,-166.322 92.0001,-176.322 99.0001,-176.322"/>
<text text-anchor="middle" x="115" y="-189" font-family="Arial" font-size="10.00" fill="#ff0000">100.00%</text>
<text text-anchor="middle" x="115" y="-178" font-family="Arial" font-size="10.00" fill="#ff0000">1×</text>
</g>
<!-- __memset_avx2 -->
<g id="node5" class="node"><title>__memset_avx2</title>
<polygon fill="#0d1074" stroke="#0d1074" points="87,-63 0,-63 0,-0 87,-0 87,-63"/>
<text text-anchor="middle" x="43.5" y="-51" font-family="Arial" font-size="10.00" fill="#ffffff">libc&#45;2.23.so</text>
<text text-anchor="middle" x="43.5" y="-40" font-family="Arial" font-size="10.00" fill="#ffffff">__memset_avx2</text>
<text text-anchor="middle" x="43.5" y="-29" font-family="Arial" font-size="10.00" fill="#ffffff">0.88%</text>
<text text-anchor="middle" x="43.5" y="-18" font-family="Arial" font-size="10.00" fill="#ffffff">(0.88%)</text>
<text text-anchor="middle" x="43.5" y="-7" font-family="Arial" font-size="10.00" fill="#ffffff">328×</text>
</g>
<!-- main&#45;&gt;__memset_avx2 -->
<g id="edge5" class="edge"><title>main&#45;&gt;__memset_avx2</title>
<path fill="none" stroke="#0d1074" stroke-width="0.5" d="M79.7572,-102.923C73.8553,-91.4593 67.1136,-78.3649 61.0575,-66.602"/>
<polygon fill="#0d1074" stroke="#0d1074" stroke-width="0.5" points="62.0601,-65.8731 59.3688,-63.3221 59.8818,-66.9946 62.0601,-65.8731"/>
<text text-anchor="middle" x="88.5" y="-86" font-family="Arial" font-size="10.00" fill="#0d1074">0.87%</text>
<text text-anchor="middle" x="88.5" y="-75" font-family="Arial" font-size="10.00" fill="#0d1074">2×</text>
</g>
<!-- cgsolver.constprop.0 -->
<g id="node7" class="node"><title>cgsolver.constprop.0</title>
<polygon fill="#fe0900" stroke="#fe0900" points="201,-63 96,-63 96,-0 201,-0 201,-63"/>
<text text-anchor="middle" x="148.5" y="-51" font-family="Arial" font-size="10.00" fill="#ffffff">poisson.ex</text>
<text text-anchor="middle" x="148.5" y="-40" font-family="Arial" font-size="10.00" fill="#ffffff">cgsolver.constprop.0</text>
<text text-anchor="middle" x="148.5" y="-29" font-family="Arial" font-size="10.00" fill="#ffffff">99.09%</text>
<text text-anchor="middle" x="148.5" y="-18" font-family="Arial" font-size="10.00" fill="#ffffff">(99.08%)</text>
<text text-anchor="middle" x="148.5" y="-7" font-family="Arial" font-size="10.00" fill="#ffffff">3×</text>
</g>
<!-- main&#45;&gt;cgsolver.constprop.0 -->
<g id="edge6" class="edge"><title>main&#45;&gt;cgsolver.constprop.0</title>
<path fill="none" stroke="#fe0900" stroke-width="3.96" d="M111.546,-102.923C116.584,-93.3208 122.223,-82.5748 127.549,-72.4253"/>
<polygon fill="#fe0900" stroke="#fe0900" stroke-width="3.96" points="130.779,-73.8033 132.326,-63.3221 124.58,-70.5506 130.779,-73.8033"/>
<text text-anchor="middle" x="143.5" y="-86" font-family="Arial" font-size="10.00" fill="#fe0900">99.09%</text>
<text text-anchor="middle" x="143.5" y="-75" font-family="Arial" font-size="10.00" fill="#fe0900">3×</text>
</g>
<!-- 0x0000000000000c30 -->
<g id="node3" class="node"><title>0x0000000000000c30</title>
<polygon fill="#ff0000" stroke="#ff0000" points="151,-578 40,-578 40,-515 151,-515 151,-578"/>
<text text-anchor="middle" x="95.5" y="-566" font-family="Arial" font-size="10.00" fill="#ffffff">ld&#45;2.23.so</text>
<text text-anchor="middle" x="95.5" y="-555" font-family="Arial" font-size="10.00" fill="#ffffff">0x0000000000000c30</text>
<text text-anchor="middle" x="95.5" y="-544" font-family="Arial" font-size="10.00" fill="#ffffff">100.00%</text>
<text text-anchor="middle" x="95.5" y="-533" font-family="Arial" font-size="10.00" fill="#ffffff">(0.00%)</text>
<text text-anchor="middle" x="95.5" y="-522" font-family="Arial" font-size="10.00" fill="#ffffff">0×</text>
</g>
<!-- _start -->
<g id="node4" class="node"><title>_start</title>
<polygon fill="#ff0000" stroke="#ff0000" points="127.5,-475 63.5,-475 63.5,-412 127.5,-412 127.5,-475"/>
<text text-anchor="middle" x="95.5" y="-463" font-family="Arial" font-size="10.00" fill="#ffffff">poisson.ex</text>
<text text-anchor="middle" x="95.5" y="-452" font-family="Arial" font-size="10.00" fill="#ffffff">_start</text>
<text text-anchor="middle" x="95.5" y="-441" font-family="Arial" font-size="10.00" fill="#ffffff">100.00%</text>
<text text-anchor="middle" x="95.5" y="-430" font-family="Arial" font-size="10.00" fill="#ffffff">(0.00%)</text>
<text text-anchor="middle" x="95.5" y="-419" font-family="Arial" font-size="10.00" fill="#ffffff">1×</text>
</g>
<!-- 0x0000000000000c30&#45;&gt;_start -->
<g id="edge2" class="edge"><title>0x0000000000000c30&#45;&gt;_start</title>
<path fill="none" stroke="#ff0000" stroke-width="4" d="M95.5,-514.923C95.5,-505.615 95.5,-495.232 95.5,-485.359"/>
<polygon fill="#ff0000" stroke="#ff0000" stroke-width="4" points="99.0001,-485.322 95.5,-475.322 92.0001,-485.322 99.0001,-485.322"/>
<text text-anchor="middle" x="115" y="-498" font-family="Arial" font-size="10.00" fill="#ff0000">100.00%</text>
<text text-anchor="middle" x="115" y="-487" font-family="Arial" font-size="10.00" fill="#ff0000">1×</text>
</g>
<!-- _dl_runtime_resolve_avx -->
<g id="node6" class="node"><title>_dl_runtime_resolve_avx</title>
<polygon fill="#ff0000" stroke="#ff0000" points="156.5,-372 34.5,-372 34.5,-309 156.5,-309 156.5,-372"/>
<text text-anchor="middle" x="95.5" y="-360" font-family="Arial" font-size="10.00" fill="#ffffff">ld&#45;2.23.so</text>
<text text-anchor="middle" x="95.5" y="-349" font-family="Arial" font-size="10.00" fill="#ffffff">_dl_runtime_resolve_avx</text>
<text text-anchor="middle" x="95.5" y="-338" font-family="Arial" font-size="10.00" fill="#ffffff">100.00%</text>
<text text-anchor="middle" x="95.5" y="-327" font-family="Arial" font-size="10.00" fill="#ffffff">(0.00%)</text>
<text text-anchor="middle" x="95.5" y="-316" font-family="Arial" font-size="10.00" fill="#ffffff">6×</text>
</g>
<!-- _start&#45;&gt;_dl_runtime_resolve_avx -->
<g id="edge4" class="edge"><title>_start&#45;&gt;_dl_runtime_resolve_avx</title>
<path fill="none" stroke="#ff0000" stroke-width="4" d="M95.5,-411.923C95.5,-402.615 95.5,-392.232 95.5,-382.359"/>
<polygon fill="#ff0000" stroke="#ff0000" stroke-width="4" points="99.0001,-382.322 95.5,-372.322 92.0001,-382.322 99.0001,-382.322"/>
<text text-anchor="middle" x="115" y="-395" font-family="Arial" font-size="10.00" fill="#ff0000">100.00%</text>
<text text-anchor="middle" x="115" y="-384" font-family="Arial" font-size="10.00" fill="#ff0000">1×</text>
</g>
<!-- _dl_runtime_resolve_avx&#45;&gt;(below main) -->
<g id="edge3" class="edge"><title>_dl_runtime_resolve_avx&#45;&gt;(below main)</title>
<path fill="none" stroke="#ff0000" stroke-width="4" d="M95.5,-308.923C95.5,-299.615 95.5,-289.232 95.5,-279.359"/>
<polygon fill="#ff0000" stroke="#ff0000" stroke-width="4" points="99.0001,-279.322 95.5,-269.322 92.0001,-279.322 99.0001,-279.322"/>
<text text-anchor="middle" x="115" y="-292" font-family="Arial" font-size="10.00" fill="#ff0000">100.00%</text>
<text text-anchor="middle" x="115" y="-281" font-family="Arial" font-size="10.00" fill="#ff0000">1×</text>
</g>
</g>
</svg>
